STARTFONT 2.1
FONT jis.jis6800.24
SIZE 24 72 72
FONTBOUNDINGBOX 24 24 0 -3
STARTPROPERTIES 4
FONT_DESCENT 3
FONT_ASCENT 21
DEFAULT_CHAR 2
COPYRIGHT "Copyright (c) 1992 AT&T - All rights reserved."
ENDPROPERTIES
CHARS 184
STARTCHAR ch-2
ENCODING 2
SWIDTH 1000 0
DWIDTH 24 0
BBX 24 24 0 -3
BITMAP
0e1018
0c1ffc
0c1818
0c1818
0d9a18
ffd918
0c1998
0c1998
0e1818
1d181a
1dffff
1db018
3db018
2c3218
2c3118
6c3198
4c3198
8c3018
0c301a
0c7fff
0c6030
0c6030
0c01f0
0c0060
ENDCHAR
STARTCHAR ch-3
ENCODING 3
SWIDTH 1000 0
DWIDTH 24 0
BBX 24 24 0 -3
BITMAP
0e0018
0c21fc
0c3f80
0c3000
0db000
fff006
0c3fff
0c3180
0c3180
1e3180
1d318c
1db1fe
3db18c
2c318c
2c318c
6c310c
4c230c
8c630c
0c420c
0c460c
0c841c
0d0818
0c10f8
0c6030
ENDCHAR
STARTCHAR ch-4
ENCODING 4
SWIDTH 1000 0
DWIDTH 24 0
BBX 24 24 0 -3
BITMAP
004020
083038
061870
031860
1300c0
100106
3fffff
300006
600004
601c08
001800
00180c
7ffffe
003a00
007a00
00d900
01d980
0398c0
071870
0c183f
30181e
c01806
001800
001800
ENDCHAR
STARTCHAR ch-19
ENCODING 19
SWIDTH 1000 0
DWIDTH 24 0
BBX 24 24 0 -3
BITMAP
0e0300
0c0300
0c0680
0c0680
0d8c40
ffcc60
0c1830
0c301c
0c600f
1dbff6
1e0300
1d0300
3d8300
2d8300
2c0318
6c7ffc
4c0300
8c0300
0c0300
0c0300
0c0300
0c0306
0dffff
0c0000
ENDCHAR
STARTCHAR ch-22
ENCODING 22
SWIDTH 1000 0
DWIDTH 24 0
BBX 24 24 0 -3
BITMAP
1c0000
180006
18ffff
180660
1b0660
ff8660
184666
187fff
186666
3c6666
3a6666
3b6666
3b6666
786466
586c7e
58683e
587006
986006
186006
186006
186006
187ffe
186006
186006
ENDCHAR
STARTCHAR ch-23
ENCODING 23
SWIDTH 1000 0
DWIDTH 24 0
BBX 24 24 0 -3
BITMAP
000006
ffffff
00c300
00c300
20c30c
3ffffe
30c30c
30c30c
30c30c
30c30c
3ffffc
30000c
001c00
001806
ffffff
003a00
007900
00d980
01d8c0
039870
0e183f
38181e
c01806
001800
ENDCHAR
STARTCHAR ch-30
ENCODING 30
SWIDTH 1000 0
DWIDTH 24 0
BBX 24 24 0 -3
BITMAP
00c00c
7fe7fe
060060
060060
066066
fff7ff
060060
060060
060060
060060
060060
001c00
001800
00180c
7ffffe
007a00
00f900
00d980
0198c0
031870
0e183f
38181e
c01806
001800
ENDCHAR
STARTCHAR ch-33
ENCODING 33
SWIDTH 1000 0
DWIDTH 24 0
BBX 24 24 0 -3
BITMAP
0e01c0
0c0180
0c0180
0c0186
0c7fff
ff8000
0c0820
0c0e18
0c0c0c
1e1806
1d1006
1da020
3d8438
2c0430
2c0230
6c0260
4c0360
8c01c0
0c0180
0c03c0
0c0670
0c0c3f
0c301e
0cc006
ENDCHAR
STARTCHAR ch-34
ENCODING 34
SWIDTH 1000 0
DWIDTH 24 0
BBX 24 24 0 -3
BITMAP
0e0006
0c7fff
0c0180
0c0180
0c8100
ffc100
0c120c
0c1ffe
0c180c
1e180c
1d980c
1cd80c
3cd80c
2c180c
2c1ffc
6c180c
4c180c
8c180c
0c180c
0c180c
0c180c
0c1ffc
0c180c
0c180c
ENDCHAR
STARTCHAR ch-41
ENCODING 41
SWIDTH 1000 0
DWIDTH 24 0
BBX 24 24 0 -3
BITMAP
1c0606
18ffff
180606
180606
1a0606
ff4646
182626
183636
183636
1c0606
3a0606
3b0606
3b0e0e
381616
783636
58e6e6
586666
984646
180606
180606
180606
180606
183e3e
180c0c
ENDCHAR
STARTCHAR ch-42
ENCODING 42
SWIDTH 1000 0
DWIDTH 24 0
BBX 24 24 0 -3
BITMAP
0e01c0
0c1180
0c1d80
0c1980
0d998c
ffdffe
0c3180
0c2180
0c4180
1e0180
1d8186
1cffff
3cc3c0
2c07c0
2c05a0
6c0da0
4c0db0
8c1998
0c119f
0c218e
0cc186
0c0180
0c0180
0c0180
ENDCHAR
STARTCHAR ch-43
ENCODING 43
SWIDTH 1000 0
DWIDTH 24 0
BBX 24 24 0 -3
BITMAP
0e0700
0c0600
0c0600
0c060c
0d7ffe
ff8c00
0c0c00
0c0c18
0e1dfc
1d1818
1d9830
1db860
3c3860
2c5860
2c9866
6c1bff
4c1860
8c1860
0c1860
0c1860
0c1860
0c1860
0c1be0
0c18c0
ENDCHAR
STARTCHAR ch-50
ENCODING 50
SWIDTH 1000 0
DWIDTH 24 0
BBX 24 24 0 -3
BITMAP
0e0700
0c0610
0c061c
0c06d8
0dbff8
ffc630
0c0630
0c0666
0c7fff
1e0180
1d8300
1cce18
3ccffc
2c1c00
2c2c00
6ccc0c
4c0ffe
8c0c0c
0c000c
0c001c
0c0018
0c0038
0c01f0
0c0060
ENDCHAR
STARTCHAR ch-52
ENCODING 52
SWIDTH 1000 0
DWIDTH 24 0
BBX 24 24 0 -3
BITMAP
0e0800
0c0e00
0c0c00
0c180c
0d9ffe
fff000
0c2000
0c5018
0c9ffc
1e1998
1d9998
1cd998
3cd998
2c1998
2c199a
6cffff
4c1818
8c1818
0c1818
0c1818
0c1818
0c1818
0c18f8
0c1830
ENDCHAR
STARTCHAR ch-56
ENCODING 56
SWIDTH 1000 0
DWIDTH 24 0
BBX 24 24 0 -3
BITMAP
0e01c0
0c0180
0c0180
0c0186
0c7fff
ff8200
0c0380
0c0300
0c1220
1e0c38
1d8670
1cc660
3cc0c8
3c018e
2c031c
6c0618
4c0c30
8c1860
0c60c0
0c01b0
0c030c
0c0606
0c1807
0c6003
ENDCHAR
STARTCHAR ch-57
ENCODING 57
SWIDTH 1000 0
DWIDTH 24 0
BBX 24 24 0 -3
BITMAP
0e1018
0c1ffc
0c1818
0c1818
0d9818
ffd818
0c1ff8
0c1818
0c1818
1e1818
1d9818
1cdff8
3cd904
2c1907
2c1886
6c188c
4c18d0
8c1840
0c1860
0c1830
0c1b38
0dfc1f
0cf00e
0c8006
ENDCHAR
STARTCHAR ch-60
ENCODING 60
SWIDTH 1000 0
DWIDTH 24 0
BBX 24 24 0 -3
BITMAP
0e0400
0c0700
0c0618
0c07fc
0d8c18
ffcc18
0c1a30
0c1230
0c2160
1e00c0
1d81e0
1cc33f
3cc61e
3c1806
2c6000
6c100c
4c1ffe
8c180c
0c180c
0c180c
0c180c
0c180c
0c1ffc
0c180c
ENDCHAR
STARTCHAR ch-61
ENCODING 61
SWIDTH 1000 0
DWIDTH 24 0
BBX 24 24 0 -3
BITMAP
038380
030300
030320
033318
7ffb0c
03030c
030300
030306
ffffff
000300
038310
03031c
033118
fff998
0701b0
0780b0
0f60e0
0b3042
1b30e2
3301b2
63033a
83061f
03180f
036006
ENDCHAR
STARTCHAR ch-64
ENCODING 64
SWIDTH 1000 0
DWIDTH 24 0
BBX 24 24 0 -3
BITMAP
040038
070030
063030
0ff834
0c37fe
187330
366330
42c330
018332
030fff
060030
180030
601c30
001800
00180c
7ffffe
007a00
00f900
01d8c0
039870
07183f
1c181e
e01806
001800
ENDCHAR
STARTCHAR ch-65
ENCODING 65
SWIDTH 1000 0
DWIDTH 24 0
BBX 24 24 0 -3
BITMAP
0e0800
0c0e00
0c1c0c
0c1bfe
0cb000
ffe000
0c4000
0c9000
0c1c00
1e1806
1d37ff
1db030
3df030
2c7030
2cb030
6d3030
4c3030
8c3030
0c3030
0c3030
0c3030
0c3030
0c31f0
0c3060
ENDCHAR
STARTCHAR ch-66
ENCODING 66
SWIDTH 1000 0
DWIDTH 24 0
BBX 24 24 0 -3
BITMAP
0e01c0
0c0180
0c0180
0c018c
0cbffe
ffc180
0c0180
0c0180
0c0186
1e7fff
1d8000
1cc000
3cc1c0
2c0180
2c0180
6c018c
4c7ffe
8c0180
0c0180
0c0180
0c0180
0c0186
0cffff
0c0000
ENDCHAR
STARTCHAR ch-67
ENCODING 67
SWIDTH 1000 0
DWIDTH 24 0
BBX 24 24 0 -3
BITMAP
0e0670
0c0660
0c0664
0c4667
0d2666
ffb66c
0c3668
0c3670
0c0660
1e0660
1d0660
1d8660
3d8e70
2c166c
2c3666
6ce663
4c6663
8c4660
0c0660
0c0c62
0c0c62
0c1863
0c307f
0cc03e
ENDCHAR
STARTCHAR ch-70
ENCODING 70
SWIDTH 1000 0
DWIDTH 24 0
BBX 24 24 0 -3
BITMAP
0e200c
0c3ffe
0c3000
0c3000
0db018
fff7fc
0c30c0
0c30c0
0c30c0
1e30c0
1d30d8
1db7fc
3db0c0
2c30c0
2c30c0
6c30c0
4c30c0
8c30cc
0c37fe
0c3000
0c3000
0c3006
0c3fff
0c3000
ENDCHAR
STARTCHAR ch-72
ENCODING 72
SWIDTH 1000 0
DWIDTH 24 0
BBX 24 24 0 -3
BITMAP
001c00
101800
101806
3fffff
602006
603808
007006
ffffff
01c1c0
038380
077600
061f80
0071e0
038070
3c1c30
001806
ffffff
007a00
00f980
01d8e0
07187f
1c181e
e01806
001800
ENDCHAR
STARTCHAR ch-77
ENCODING 77
SWIDTH 1000 0
DWIDTH 24 0
BBX 24 24 0 -3
BITMAP
0e0380
0c0300
0c0300
0c0306
0dbfff
ffc640
0c0640
0c0420
0e0c30
1d081c
1d97ef
1da006
3c4000
2c3ffc
2c0600
6c0618
4c07fc
8c0c18
0c0c18
0c0018
0c0038
0c0030
0c01f0
0c0060
ENDCHAR
STARTCHAR ch-78
ENCODING 78
SWIDTH 1000 0
DWIDTH 24 0
BBX 24 24 0 -3
BITMAP
0e0000
0c0006
0c3fff
0c0300
0d8300
ffc210
0c0608
0c040c
0c0476
1e3f86
1d9c06
1cd000
3cc1c0
2c0180
2c0180
6c018c
4c3ffe
8c0180
0c0180
0c0180
0c0180
0c0186
0c7fff
0c0000
ENDCHAR
STARTCHAR ch-80
ENCODING 80
SWIDTH 1000 0
DWIDTH 24 0
BBX 24 24 0 -3
BITMAP
0e0000
0c4006
0c7fff
0c6006
0c6006
ffe066
0c6ff6
0c6006
0c6006
1e6466
1d67f6
1de666
3de666
2c6666
2c6666
6c6666
4c67e6
8c6666
0c6006
0c6006
0c6006
0c6006
0c603e
0c600c
ENDCHAR
STARTCHAR ch-81
ENCODING 81
SWIDTH 1000 0
DWIDTH 24 0
BBX 24 24 0 -3
BITMAP
0000c0
07ffe0
000180
01e700
001c00
0063c0
0780c0
000018
7feffc
00c018
198330
0700c0
0d81b0
18c61c
60d80c
001800
ffffff
00d900
01d8c0
039870
06183f
18181e
e01806
001800
ENDCHAR
STARTCHAR ch-83
ENCODING 83
SWIDTH 1000 0
DWIDTH 24 0
BBX 24 24 0 -3
BITMAP
0e0006
0c7fff
0c0000
0c0000
0d9018
ffdffc
0c1818
0c1818
0c1818
1e1818
1d9818
1cdff8
3cd818
2c1818
2c1818
6c1818
4c1818
8c1ff8
0c1818
0c0000
0c0000
0c0006
0cffff
0c0000
ENDCHAR
STARTCHAR ch-84
ENCODING 84
SWIDTH 1000 0
DWIDTH 24 0
BBX 24 24 0 -3
BITMAP
0e01c0
0c0180
0c0180
0c0180
0cc186
ffffff
0c0180
0c0180
0c0180
1e0180
1d018c
1dbffe
3d8000
2c0000
2c100c
6c1ffe
4c180c
8c180c
0c180c
0c180c
0c180c
0c1ffc
0c180c
0c180c
ENDCHAR
STARTCHAR ch-89
ENCODING 89
SWIDTH 1000 0
DWIDTH 24 0
BBX 24 24 0 -3
BITMAP
0e0400
0c0700
0c0620
0c0418
0d880c
fffffe
0c3f06
0c2006
0c11c0
1e1980
1d1998
1d9ffc
3db180
2c2180
2c4180
6c0186
4cffff
8c0180
0c0180
0c0180
0c0180
0c0180
0c0180
0c0180
ENDCHAR
STARTCHAR ch-92
ENCODING 92
SWIDTH 1000 0
DWIDTH 24 0
BBX 24 24 0 -3
BITMAP
0e0404
0c0207
0c4306
0c210c
0db18c
ffd188
0c1998
0c1810
0e0020
1d8400
1cc700
1cc600
3c0606
2dffff
2c0c30
6c0c30
4c1860
8c1860
0c36c0
0c3180
0c0360
0c0638
0c181c
0ce00c
ENDCHAR
STARTCHAR ch-93
ENCODING 93
SWIDTH 1000 0
DWIDTH 24 0
BBX 24 24 0 -3
BITMAP
0e201c
0c3818
0c3018
0c3018
0db618
fffe18
0c27fe
0c6698
0c4698
1c4698
1ea698
1d3698
3dbc98
2d8c98
2c0c9a
6c0bff
4c1818
8c1818
0c1018
0c3018
0c2018
0c4018
0c8018
0c0018
ENDCHAR
STARTCHAR ch-95
ENCODING 95
SWIDTH 1000 0
DWIDTH 24 0
BBX 24 24 0 -3
BITMAP
0e0390
0c030c
0c030c
0c0300
0d83fe
ffff00
0c0300
0c03fc
0c3f00
1e0300
1d0306
1d83ff
3dbf00
2c0110
2c019c
6c0198
4c00b0
8c00e0
0c0042
0c00e2
0c01b2
0c063b
0c181f
0ce00e
ENDCHAR
STARTCHAR ch-99
ENCODING 99
SWIDTH 1000 0
DWIDTH 24 0
BBX 24 24 0 -3
BITMAP
0e01c0
0c0184
0c2187
0c1186
0d998c
ffcd8c
0c0d88
0c0d90
0c0180
1e0186
1d9fff
1cc006
3cc006
2c0006
2c0006
6c0006
4c1ffe
8c0006
0c0006
0c0006
0c0006
0c0006
0c1ffe
0c0006
ENDCHAR
STARTCHAR ch-103
ENCODING 103
SWIDTH 1000 0
DWIDTH 24 0
BBX 24 24 0 -3
BITMAP
0e0300
0c0300
0c0680
0c0640
0d8c60
ffcc30
0c181c
0c100f
0c2006
1e4030
1d1ff8
1d8000
3d8000
2c000c
2c7ffe
6c0700
4c0600
8c0600
0c0420
0c0c10
0c0818
0c7fec
0c3e0c
0c200c
ENDCHAR
STARTCHAR ch-116
ENCODING 116
SWIDTH 1000 0
DWIDTH 24 0
BBX 24 24 0 -3
BITMAP
0e0018
0c00fc
0c0fc0
0df810
0c861c
ffe318
0c3330
0c3040
0c0018
1e7ffc
1d8030
1cc060
3cc280
2c0300
2c0306
6dffff
4c0300
8c0300
0c0300
0c0300
0c0300
0c0300
0c1f00
0c0600
ENDCHAR
STARTCHAR ch-118
ENCODING 118
SWIDTH 1000 0
DWIDTH 24 0
BBX 24 24 0 -3
BITMAP
0e000c
0c3ffe
0c000c
0c0218
0cc1a0
ffe0c0
0c10c6
0c1fff
0c18c6
1e18c6
1d98c6
1cdffe
3cd8c6
2c18c6
2c18c6
6c18c6
4c1ffe
8c18c6
0c18c6
0c18c6
0c18c6
0c18c6
0c18de
0c18cc
ENDCHAR
STARTCHAR ch-119
ENCODING 119
SWIDTH 1000 0
DWIDTH 24 0
BBX 24 24 0 -3
BITMAP
0e0800
0c0e00
0c0c60
0c0ff0
0d9860
ffd040
0c2086
0c7fff
0cb186
1e3186
1d3186
1dbffe
3db186
2c3186
2c3186
6c3186
4c3ffe
8c3006
0c3006
0c6006
0c6006
0c4006
0c807e
0d000c
ENDCHAR
STARTCHAR ch-126
ENCODING 126
SWIDTH 1000 0
DWIDTH 24 0
BBX 24 24 0 -3
BITMAP
0e0018
0c3ffc
0c0618
0c0618
0d861a
ffffff
0c0618
0c0618
0c0618
1e0618
1dbff8
1cc618
3cc600
2c0e00
2c0c0c
6c0ffe
4c1c0c
8c1c0c
0c3c0c
0c2c0c
0ccc0c
0c0ffc
0c0c0c
0c0c0c
ENDCHAR
STARTCHAR ch-127
ENCODING 127
SWIDTH 1000 0
DWIDTH 24 0
BBX 24 24 0 -3
BITMAP
0e100c
0c1ffe
0c180c
0c180c
0d980c
ffdffc
0c180c
0c180c
0c180c
1e1ffc
1d980c
1cc000
3cc00c
2c3ffe
2c0180
6c0180
4c0186
8c7fff
0c0180
0c0180
0c0180
0c0180
0c0180
0c0180
ENDCHAR
STARTCHAR ch-129
ENCODING 129
SWIDTH 1000 0
DWIDTH 24 0
BBX 24 24 0 -3
BITMAP
100000
0e0030
067ff8
800630
700630
324638
044434
08cc36
198833
f19873
701060
3023e0
38c0c0
181800
001806
ffffff
007a00
00d900
0198c0
031870
06183f
18181e
e01806
001800
ENDCHAR
STARTCHAR ch-131
ENCODING 131
SWIDTH 1000 0
DWIDTH 24 0
BBX 24 24 0 -3
BITMAP
0e000c
0c183e
0cfdf0
0c1860
0c1060
ffb060
0c3060
0c2060
0c6066
1e47ff
1d7c60
1d8c60
3d8c60
2c0860
2c0860
6c9860
4c9060
8c506c
0c63fe
0c3000
0c5c00
0c4fff
0c83fe
0d0000
ENDCHAR
STARTCHAR ch-133
ENCODING 133
SWIDTH 1000 0
DWIDTH 24 0
BBX 24 24 0 -3
BITMAP
0e0800
0c0e00
0c0c00
0c0806
0d9fff
ffd000
0c2000
0c5018
0e1ffc
1d1998
1d9998
1d9998
3c199a
2dffff
2c3318
6c3318
4c3318
8c3318
0c331a
0c7fff
0c6030
0c6030
0c01f0
0c0060
ENDCHAR
STARTCHAR ch-141
ENCODING 141
SWIDTH 1000 0
DWIDTH 24 0
BBX 24 24 0 -3
BITMAP
0e0200
0c0380
0c130c
0c1ffe
0d980c
ffd80c
0c180c
0c1ffc
0c180c
1e180c
1d980c
1cdffc
3cd80c
2c0380
2c0300
6c0306
4c7fff
8c0300
0c0300
0c0302
0c0302
0c0303
0c03ff
0c01fe
ENDCHAR
STARTCHAR ch-143
ENCODING 143
SWIDTH 1000 0
DWIDTH 24 0
BBX 24 24 0 -3
BITMAP
0e01c0
0c1180
0c1d80
0c1980
0d998c
fffffe
0c3180
0c2180
0c4180
1e0180
1d8186
1cffff
3cc000
2c0000
2c1018
6c1ffc
4c1818
8c1818
0c1818
0c1818
0c1818
0c1818
0c1ff8
0c1818
ENDCHAR
STARTCHAR ch-147
ENCODING 147
SWIDTH 1000 0
DWIDTH 24 0
BBX 24 24 0 -3
BITMAP
0e01c0
0c0180
0c018c
0c3ffe
0c8020
ffc838
0c0430
0c0630
0c0620
1e0620
1d8040
1cc046
3cffff
2cc180
2c0180
6c0180
4c018c
8c3ffe
0c0180
0c0180
0c0180
0c0180
0c0180
0c0180
ENDCHAR
STARTCHAR ch-148
ENCODING 148
SWIDTH 1000 0
DWIDTH 24 0
BBX 24 24 0 -3
BITMAP
0e0018
0c007c
0c23e0
0c3e00
0db000
fff006
0c3fff
0c3000
0c3000
1e37fc
1d364c
1db64c
3db64c
2c364c
2c364c
6c37fc
4c6600
8c6600
0c4600
0cc602
0c8602
0d0603
0c07ff
0c03fe
ENDCHAR
STARTCHAR ch-151
ENCODING 151
SWIDTH 1000 0
DWIDTH 24 0
BBX 24 24 0 -3
BITMAP
0e0006
0c7fff
0c0180
0c0180
0cc18c
fffffe
0c318c
0c318c
0c318c
1e3ffc
1d318c
1db18c
3db18c
2c3ffc
2c318c
6c0180
4c1180
8c0d00
0c0700
0c0380
0c06e0
0c0c7f
0c301e
0cc006
ENDCHAR
STARTCHAR ch-155
ENCODING 155
SWIDTH 1000 0
DWIDTH 24 0
BBX 24 24 0 -3
BITMAP
1c0646
19ff7f
182666
182666
182664
ff266c
182668
18fe68
182670
3c2668
3b266c
3b2664
382666
78fe66
582666
582666
582666
986666
184666
18467e
18ce6c
188c60
193c60
181860
ENDCHAR
STARTCHAR ch-157
ENCODING 157
SWIDTH 1000 0
DWIDTH 24 0
BBX 24 24 0 -3
BITMAP
080800
0e0e00
0c0c06
0c0fff
19d818
199430
19a230
398360
3981c0
598370
598c3f
99b00e
1981c0
198186
19ffff
1983a0
1987a0
198590
198d98
19898c
18118f
186186
180180
180180
ENDCHAR
STARTCHAR ch-159
ENCODING 159
SWIDTH 1000 0
DWIDTH 24 0
BBX 24 24 0 -3
BITMAP
004000
007000
086020
0ffff0
080020
0fffe0
080020
0fffe0
080004
0ffffe
080000
0ffffc
08000c
001c7c
001818
001802
ffffff
007a00
00d980
0198e0
07187f
1c181e
e01806
001800
ENDCHAR
STARTCHAR ch-160
ENCODING 160
SWIDTH 1000 0
DWIDTH 24 0
BBX 24 24 0 -3
BITMAP
0e100c
0c1ffe
0c180c
0c180c
0d980c
ffd80c
0c180c
0c180c
0c1ffc
1e198c
1d8180
1cc100
3cc100
2c2206
2c3fff
6c3006
4c3006
8c3006
0c3006
0c3006
0c3006
0c3006
0c3ffe
0c3006
ENDCHAR
STARTCHAR ch-162
ENCODING 162
SWIDTH 1000 0
DWIDTH 24 0
BBX 24 24 0 -3
BITMAP
0e01c4
0c4187
0c3186
0c198c
0d9988
ffd990
0c0180
0c218c
0c3ffe
1e300c
1d300c
1db00c
3dbffc
2c300c
2c300c
6c300c
4c3ffc
8c300c
0c300c
0c300c
0c300c
0c300c
0c307c
0c3018
ENDCHAR
STARTCHAR ch-166
ENCODING 166
SWIDTH 1000 0
DWIDTH 24 0
BBX 24 24 0 -3
BITMAP
0380e0
0300c0
0318c6
ffffff
0701c0
0f83e0
0f73d0
1b36d8
3304cc
6308cf
8310c6
0340c0
007000
00e060
00fff0
0180e0
0341c0
0c3380
301700
000e00
003800
00e000
038000
1c0000
ENDCHAR
STARTCHAR ch-167
ENCODING 167
SWIDTH 1000 0
DWIDTH 24 0
BBX 24 24 0 -3
BITMAP
0e000c
0c3ffe
0c0300
0c0300
0d8300
ffc330
0c1ff8
0c0630
0c0630
1e0630
1d8630
1cc636
3cffff
2cc000
2c0000
6c1018
4c1ffc
8c1818
0c1818
0c1818
0c1818
0c1818
0c1ff8
0c1818
ENDCHAR
STARTCHAR ch-168
ENCODING 168
SWIDTH 1000 0
DWIDTH 24 0
BBX 24 24 0 -3
BITMAP
00600e
03f1cc
7f018c
03018c
03198c
fffd8c
07018c
0f818c
1b618c
33300c
63300c
83007c
031c18
001800
001806
ffffff
007a00
00d900
0198c0
031870
0c183f
30181e
c01806
001800
ENDCHAR
STARTCHAR ch-173
ENCODING 173
SWIDTH 1000 0
DWIDTH 24 0
BBX 24 24 0 -3
BITMAP
0e0400
0c0700
0c0620
0c0418
0d880c
fffff6
0c3e06
0c2870
0c0e60
1c0c60
1e187e
1db43e
3cc700
2cc618
2c0ffc
6c0830
4c1460
8c62c0
0c0180
0c03c0
0c0670
0c0c3f
0c301e
0cc006
ENDCHAR
STARTCHAR ch-175
ENCODING 175
SWIDTH 1000 0
DWIDTH 24 0
BBX 24 24 0 -3
BITMAP
0e1020
0c0c38
0c0630
0c0620
0d004c
ffbffe
0c018c
0c018c
0c218c
1e3ffc
1d318c
1db180
3db180
2c3186
2c7fff
6c6386
4c6386
8c0786
0c0586
0c0d8c
0c19bc
0c3198
0cc180
0c0180
ENDCHAR
STARTCHAR ch-176
ENCODING 176
SWIDTH 1000 0
DWIDTH 24 0
BBX 24 24 0 -3
BITMAP
1c00e8
1800c6
1800c6
1800c0
1980c6
ffffff
1800c0
1800c0
1824c4
3c24c7
3a2446
3b2446
3b244c
78ff6c
582468
582428
582430
982452
18645a
1844da
18418a
18830e
180607
181803
ENDCHAR
STARTCHAR ch-177
ENCODING 177
SWIDTH 1000 0
DWIDTH 24 0
BBX 24 24 0 -3
BITMAP
0e4006
0c7fff
0c6006
0c6186
0d6106
ffe106
0c6126
0c6ff6
0c6106
1e6386
1d6386
1de346
3de746
2c6566
2c6536
6c693e
4c7116
8c6106
0c6106
0c6106
0c6006
0c6006
0c7ffe
0c6006
ENDCHAR
STARTCHAR ch-179
ENCODING 179
SWIDTH 1000 0
DWIDTH 24 0
BBX 24 24 0 -3
BITMAP
0e01c0
0c0180
0c0186
0c7fff
0d8600
ffc420
0c0418
0c080c
0c7ff6
1e3c06
1d2000
1d8000
3d9938
2c1930
2c1930
6c1930
4c1930
8c1930
0c1930
0c3132
0c3132
0c2133
0c413f
0c801e
ENDCHAR
STARTCHAR ch-181
ENCODING 181
SWIDTH 1000 0
DWIDTH 24 0
BBX 24 24 0 -3
BITMAP
0380e0
0300c0
0330cc
7ffffe
0300c0
07c1e0
0f33d0
1b36dc
330ccf
c330c6
0300c0
000000
020300
03ff80
030300
030300
036300
033b00
071b02
060302
0e0302
0c0303
1803ff
6001fe
ENDCHAR
STARTCHAR ch-182
ENCODING 182
SWIDTH 1000 0
DWIDTH 24 0
BBX 24 24 0 -3
BITMAP
0e2006
0c3fff
0c3006
0c3006
0db006
fffffe
0c3006
0c3030
0c30f8
1c3780
1e3180
1d318c
3dbffe
2db180
2c3180
6c3186
4c3fff
8c6180
0c6180
0c4182
0cc182
0c8183
0d01ff
0c00fe
ENDCHAR
STARTCHAR ch-185
ENCODING 185
SWIDTH 1000 0
DWIDTH 24 0
BBX 24 24 0 -3
BITMAP
0e0030
0c00f8
0c13c0
0c1e00
0d9800
ffd800
0c180c
0c1ffe
0c1860
1e1860
1d9860
1cd860
3cd860
2c1866
6cffff
4c0000
8c0000
0c0840
0c0e30
0c1c18
0c180c
0c300e
0c6006
0d8006
ENDCHAR
STARTCHAR ch-186
ENCODING 186
SWIDTH 1000 0
DWIDTH 24 0
BBX 24 24 0 -3
BITMAP
0381c0
030180
03318c
7ffffe
030180
07c3c0
0733a0
0f37b0
1b0d9c
33198f
c32186
030180
000000
000006
ffffff
003000
003c00
003380
0030e0
003070
003030
003000
003000
003000
ENDCHAR
STARTCHAR ch-188
ENCODING 188
SWIDTH 1000 0
DWIDTH 24 0
BBX 24 24 0 -3
BITMAP
0e0380
0c0300
0c0304
0c3ffe
0d8300
ffc308
0c1ffc
0c0300
0c0300
1e0304
1dbffe
1cc600
3cc618
2c041a
2cffff
6c0c18
4c0a18
8c1918
0c1198
0c3198
0c2018
0c4018
0d80f8
0c0030
ENDCHAR
STARTCHAR ch-196
ENCODING 196
SWIDTH 1000 0
DWIDTH 24 0
BBX 24 24 0 -3
BITMAP
001c00
00180c
7ffffe
006080
008060
3ffff8
1fc01c
131cec
0318c0
0318c6
ffffff
0318c0
0318c0
03ffc0
031cc0
001806
ffffff
007a00
00d980
0198e0
07187f
1c181e
e01806
001800
ENDCHAR
STARTCHAR ch-198
ENCODING 198
SWIDTH 1000 0
DWIDTH 24 0
BBX 24 24 0 -3
BITMAP
0e0300
0c0300
0c0680
0c0680
0d8c40
ffcc60
0c1838
0c101f
0c2fee
1e4006
1d0000
1da00c
3dbffe
2c324c
2c324c
6c324c
4c324c
8c3ffc
0c324c
0c324c
0c324c
0c324c
0c325c
0c300c
ENDCHAR
STARTCHAR ch-201
ENCODING 201
SWIDTH 1000 0
DWIDTH 24 0
BBX 24 24 0 -3
BITMAP
0e0100
0c01c0
0c118c
0c1ffe
0d980c
ffd80c
0c1ffc
0c180c
0c180c
1e180c
1d9ffc
1cc180
3cc180
2c2186
2c3fff
6c3186
4c3186
8c3186
0c3186
0c3186
0c319e
0c318c
0c0180
0c0180
ENDCHAR
STARTCHAR ch-202
ENCODING 202
SWIDTH 1000 0
DWIDTH 24 0
BBX 24 24 0 -3
BITMAP
01c1c0
01818c
7ffffe
018180
018180
01ff80
018180
018180
01ff80
018180
018186
ffffff
018080
031c40
061860
0c1838
33ffdf
c07a06
00d900
0198c0
031870
0c183e
30180c
001800
ENDCHAR
STARTCHAR ch-203
ENCODING 203
SWIDTH 1000 0
DWIDTH 24 0
BBX 24 24 0 -3
BITMAP
0e0e38
0c0c30
0c0c30
0c0c34
0c7ffe
ff8c30
0c0c30
0c0c30
0c0ff0
1e0c30
1d8c30
1ccc30
3ccff0
2c0c30
2c0c30
6c0c30
4c0c32
8cffff
0c0800
0c0e20
0c1c18
0c180c
0c300e
0cc006
ENDCHAR
STARTCHAR ch-205
ENCODING 205
SWIDTH 1000 0
DWIDTH 24 0
BBX 24 24 0 -3
BITMAP
0e1018
0c1ffc
0c1818
0c1818
0d9818
ffdff8
0c1818
0c1818
0c1818
1e1ff8
1d9818
1cc000
3cdc70
2c1862
2c1867
6c1f6e
4c1878
8c1860
0c1860
0c1862
0c1f62
0cfc63
0c707f
0c403e
ENDCHAR
STARTCHAR ch-210
ENCODING 210
SWIDTH 1000 0
DWIDTH 24 0
BBX 24 24 0 -3
BITMAP
0e0380
0c0300
0c030c
0cfffe
0c0300
ff8300
0c7ffc
0c0680
0c0680
1e0c46
1dffff
1d8860
3d9830
2c1338
2c231c
6c5fef
4c8306
8d0300
0c0318
0c7ffc
0c0300
0c0300
0c0300
0c0300
ENDCHAR
STARTCHAR ch-212
ENCODING 212
SWIDTH 1000 0
DWIDTH 24 0
BBX 24 24 0 -3
BITMAP
0e0018
0c10fc
0c1fc0
0c18c0
0d98c0
ffd8c6
0c1fff
0c1860
0e1860
1d1832
1d9832
1d9f1b
3c7c0f
2c3006
2c0000
6c1ffc
4c180c
8c180c
0c1ffc
0c180c
0c180c
0c180c
0c1ffc
0c180c
ENDCHAR
STARTCHAR ch-213
ENCODING 213
SWIDTH 1000 0
DWIDTH 24 0
BBX 24 24 0 -3
BITMAP
0e01c0
0c0180
0c1180
0c1186
0dbfff
ffe006
0c6004
0c0030
0e0ff8
1d8000
1cc000
1cc006
3c3fff
2c0180
2c0180
6c1190
4c1d88
8c198c
0c3186
0c2186
0c4183
0c8183
0c0f80
0c0300
ENDCHAR
STARTCHAR ch-215
ENCODING 215
SWIDTH 1000 0
DWIDTH 24 0
BBX 24 24 0 -3
BITMAP
001c00
001818
7ffffc
001800
0ffff0
0c1830
0c3e30
0c7bb0
0198e0
0e1870
700038
001c18
001806
ffffff
001800
0ffff0
0c1830
0c3c30
0c7a30
00d980
0398f0
0e183f
f0180e
001800
ENDCHAR
STARTCHAR ch-216
ENCODING 216
SWIDTH 1000 0
DWIDTH 24 0
BBX 24 24 0 -3
BITMAP
0700e0
0600c0
0630c6
ffffff
0600c0
0600c0
4668cc
7feffe
666ccc
666ccc
666ccc
666ccc
66ecdc
666ccc
0e01e0
0f01e0
1ec3d0
1662d0
3666d8
2604cf
4608ce
8610c6
0600c0
0600c0
ENDCHAR
STARTCHAR ch-218
ENCODING 218
SWIDTH 1000 0
DWIDTH 24 0
BBX 24 24 0 -3
BITMAP
1c4646
187f7f
184646
184646
1b4646
ffc646
184646
187e7e
184646
3c4646
3a4646
3b4646
3b4646
787e7e
584646
584646
984646
184646
184646
184646
18c6c6
188686
189e9e
190d0c
ENDCHAR
STARTCHAR ch-223
ENCODING 223
SWIDTH 1000 0
DWIDTH 24 0
BBX 24 24 0 -3
BITMAP
0e01c0
0c0180
0c0186
0c7fff
0d8180
ffc180
0c3ffc
0c318c
0c318c
1e318c
1d3ffc
1db18c
3db18c
2c318c
2c3ffc
6c03c0
4c07c0
8c05a0
0c0db0
0c1998
0c319f
0c618e
0d8186
0c0180
ENDCHAR
STARTCHAR ch-224
ENCODING 224
SWIDTH 1000 0
DWIDTH 24 0
BBX 24 24 0 -3
BITMAP
001c40
041870
031860
119840
119886
3fffff
300006
6200c4
63ffe8
0300c0
0300c0
0300c0
03ffc0
0300c0
001c00
00180c
7ffffe
007a00
00f980
01d8f0
07187f
1c181e
e01806
001800
ENDCHAR
STARTCHAR ch-225
ENCODING 225
SWIDTH 1000 0
DWIDTH 24 0
BBX 24 24 0 -3
BITMAP
0e2006
0c3fff
0c3006
0c3426
0db236
fff336
0c3326
0c3046
0c3ffe
1e3086
1d3086
1db496
3db496
2c3496
2c3496
6c3496
4c3496
8c3496
0c37f6
0c3416
0c3406
0c3006
0c303e
0c300c
ENDCHAR
STARTCHAR ch-227
ENCODING 227
SWIDTH 1000 0
DWIDTH 24 0
BBX 24 24 0 -3
BITMAP
0e01c0
0c0180
0c018c
0c1ffe
0d818c
ffc18c
0c018c
0c7fff
0c018c
1e018c
1d018c
1d9ffc
3d8180
3c0188
2c118e
6c0d9c
4c05a0
8c01c0
0c03a0
0c0db0
0c799c
0c318f
0c2786
0c0300
ENDCHAR
STARTCHAR ch-231
ENCODING 231
SWIDTH 1000 0
DWIDTH 24 0
BBX 24 24 0 -3
BITMAP
0e0ec0
0c0c60
0c0c0c
0c047e
0c0780
0dbe30
ffc360
0c0182
0c02c2
1e0c72
1d301f
1d8d87
3d8cc0
2c041e
2c07e0
6c7e10
4c0318
8c0130
0c01e0
0c0082
0c01e2
0c033a
0c0c1f
0c7007
ENDCHAR
STARTCHAR ch-238
ENCODING 238
SWIDTH 1000 0
DWIDTH 24 0
BBX 24 24 0 -3
BITMAP
001c00
001800
001818
3ffffc
007a00
00d900
0198c0
031870
0c183e
70180c
0399c0
030180
030186
ffffff
030180
078380
0763c0
0f27a0
1b0db0
33199c
63318f
834186
030180
030180
ENDCHAR
STARTCHAR ch-239
ENCODING 239
SWIDTH 1000 0
DWIDTH 24 0
BBX 24 24 0 -3
BITMAP
0e0300
0c0300
0c0680
0c0680
0d8c40
ffcc60
0c1830
0c17dc
0c200f
1e4066
1d1ff0
1d8060
3d8060
2c00c0
2c00c0
6c0000
4c0d10
8c2c8c
0c2cc6
0c6cd3
0c4c13
0ccc18
0ccff8
0c07f0
ENDCHAR
STARTCHAR ch-242
ENCODING 242
SWIDTH 1000 0
DWIDTH 24 0
BBX 24 24 0 -3
BITMAP
0e0380
0c0300
0c030c
0cfffe
0c0300
ff8300
0c3ff8
0c0318
0c031a
1effff
1d0318
1d8318
3dbff8
2c0400
2c0606
6dffff
4c0c30
8c1860
0c1860
0c36c0
0c31e0
0c0338
0c1c1c
0ce00c
ENDCHAR
STARTCHAR ch-249
ENCODING 249
SWIDTH 1000 0
DWIDTH 24 0
BBX 24 24 0 -3
BITMAP
0e01c0
0c0180
0c0186
0c01ff
0cc180
ffe180
0c118c
0c1ffe
0c180c
1e180c
1d9ffc
1cd80c
3cd80c
2c180c
2c1ffc
6c198c
4c0180
8c0186
0c7fff
0c0180
0c0180
0c0180
0c0180
0c0180
ENDCHAR
STARTCHAR ch-250
ENCODING 250
SWIDTH 1000 0
DWIDTH 24 0
BBX 24 24 0 -3
BITMAP
0e01c0
0c0180
0c2180
0c2186
0d7fff
ffc006
0cc004
0cd030
0c1ff8
1e1830
1d9830
1cd830
3cdff0
2c1830
2c1800
6c1818
4c1ffc
8c1818
0c1818
0c1818
0c1818
0c1818
0c1ff8
0c1818
ENDCHAR
STARTCHAR ch-256
ENCODING 256
SWIDTH 1000 0
DWIDTH 24 0
BBX 24 24 0 -3
BITMAP
0e01c0
0c0180
0c2180
0c2186
0d7fff
ffc006
0cc004
0c2000
0e388c
1d30fe
1dbecc
1da6cc
3c66cc
2c46cc
2c44cc
6caccc
4d28dc
8c18cc
0c10c0
0c30c2
0c20c2
0c40c3
0c80ff
0d007e
ENDCHAR
STARTCHAR ch-257
ENCODING 257
SWIDTH 1000 0
DWIDTH 24 0
BBX 24 24 0 -3
BITMAP
0e01c0
0c0180
0c0186
0c7fff
0d8000
ffc830
0c0ff8
0c0c30
0c0c30
1e0c30
1d8ff0
1cc000
3cc018
2c1ffc
2c0030
6c0140
4c0186
8c7fff
0c0180
0c0180
0c0180
0c0180
0c0f80
0c0300
ENDCHAR
STARTCHAR ch-260
ENCODING 260
SWIDTH 1000 0
DWIDTH 24 0
BBX 24 24 0 -3
BITMAP
0e01c0
0c0180
0c018c
0c3ffe
0d8820
ffc438
0c0630
0c0620
0c0046
1e7fff
1d0000
1d8400
3d8700
2c0606
2c7fff
6c0c18
4c1830
8c1830
0c3760
0c30c0
0c01e0
0c0338
0c0c1c
0c700c
ENDCHAR
STARTCHAR ch-261
ENCODING 261
SWIDTH 1000 0
DWIDTH 24 0
BBX 24 24 0 -3
BITMAP
0e0380
0c0300
0c030c
0c7ffe
0c8300
ffc680
0c0660
0c0c30
0c3030
1e0006
1d7fff
1d8018
3da198
2c3fd8
2c3198
6c3198
4c3198
8c3f98
0c3198
0c3018
0c0018
0c0018
0c00f8
0c0030
ENDCHAR
STARTCHAR ch-264
ENCODING 264
SWIDTH 1000 0
DWIDTH 24 0
BBX 24 24 0 -3
BITMAP
0e0800
0c0e00
0c0c00
0c0c00
0d9806
ffdfff
0c3006
0c6706
0c0646
1e2676
1d2666
1db6c6
3db706
2c0626
2c7ff6
6c0e06
4c1f06
8c16c6
0c3666
0c6666
0d860e
0c060c
0c067c
0c0018
ENDCHAR
STARTCHAR ch-267
ENCODING 267
SWIDTH 1000 0
DWIDTH 24 0
BBX 24 24 0 -3
BITMAP
0e01c0
0c0180
0c0180
0c0186
0c7fff
ff8000
0c0000
0c1018
0c1ffc
1e1818
1d1818
1d9818
3d9818
2c1ff8
2c1998
6c0180
4c2190
8c3988
0c318c
0c6186
0c4186
0c8186
0c0f80
0c0300
ENDCHAR
STARTCHAR ch-268
ENCODING 268
SWIDTH 1000 0
DWIDTH 24 0
BBX 24 24 0 -3
BITMAP
0e01c0
0c0180
0c2180
0c2186
0dbfff
ffe666
0c6664
0c6668
0c0c60
1e0c60
1d087e
1d903e
3da000
2c0000
2c0018
6c1ffc
4c0180
8c0180
0c0180
0c0180
0c0180
0c0186
0c7fff
0c0000
ENDCHAR
STARTCHAR ch-269
ENCODING 269
SWIDTH 1000 0
DWIDTH 24 0
BBX 24 24 0 -3
BITMAP
0e01c0
0c0180
0c0186
0c7fff
0d0180
ff8180
0c0998
0c0ffc
0c0c18
1e6c18
1d6c18
1d6ff8
3d6c18
2c6c18
2c6c18
6c6ff8
4c6c18
8c6c18
0c6c18
0c6ff8
0c6000
0c6006
0c7fff
0c6000
ENDCHAR
STARTCHAR ch-270
ENCODING 270
SWIDTH 1000 0
DWIDTH 24 0
BBX 24 24 0 -3
BITMAP
0e0800
0c0e40
0c0c70
0c0c60
0d9840
ffd08c
0c3ffe
0c38c0
0c58c0
1c98c0
1e18d8
1d1ffc
3d98c0
2d98c0
2c18c0
6c18d8
4c1ffc
8c18c0
0c18c0
0c18c0
0c18c0
0c18c6
0c1fff
0c1800
ENDCHAR
STARTCHAR ch-271
ENCODING 271
SWIDTH 1000 0
DWIDTH 24 0
BBX 24 24 0 -3
BITMAP
0e0000
0c0006
0c7fff
0c0660
0d8660
ffc660
0c0660
0c2666
0c3e7f
1e3006
1d3006
1db006
3db006
2c3006
2c3006
6c3e7e
4c3666
8c0660
0c0660
0c0660
0c0660
0c0666
0c7fff
0c0000
ENDCHAR
STARTCHAR ch-274
ENCODING 274
SWIDTH 1000 0
DWIDTH 24 0
BBX 24 24 0 -3
BITMAP
0e1c00
0c1806
0c18ff
0c1826
0d9926
ffdfa6
0c1826
0c1826
0e1826
1d19a6
1dffec
1d982c
3c182c
2c9a2c
2cd928
6cd9b8
4c9990
8d99b8
0d1828
0e1868
0c184c
0c188f
0cf906
0c3206
ENDCHAR
STARTCHAR ch-281
ENCODING 281
SWIDTH 1000 0
DWIDTH 24 0
BBX 24 24 0 -3
BITMAP
0e080c
0c0ffe
0c0c0c
0c0c0c
0ccc0c
ffeffc
0c0c0c
0c0c0c
0c0c0c
1e0ffc
1d8c0c
1cc000
3cd006
2c1fff
2c1806
6c1806
4c1806
8c1ffe
0c1806
0c1806
0c1806
0c1806
0c1ffe
0c1806
ENDCHAR
STARTCHAR ch-282
ENCODING 282
SWIDTH 1000 0
DWIDTH 24 0
BBX 24 24 0 -3
BITMAP
1c4246
187f7f
186246
186246
1b7e7e
ffe246
186246
186246
187e7e
3c6006
3a6006
3b6006
3b6006
786006
586006
586006
586006
986006
186006
186006
186006
186006
18603e
18600c
ENDCHAR
STARTCHAR ch-283
ENCODING 283
SWIDTH 1000 0
DWIDTH 24 0
BBX 24 24 0 -3
BITMAP
0e0e38
0c0c30
0c0c32
0c7fff
0c0c30
ffcc30
0c0c30
0c0000
0c0800
1e0ee0
1d8cc4
1cdcc7
3cd8c6
2c38cc
2c38d8
6c78e0
4cd8c0
8d18c0
0c18c0
0c18c2
0c18c2
0c18c3
0c18ff
0c187e
ENDCHAR
STARTCHAR ch-284
ENCODING 284
SWIDTH 1000 0
DWIDTH 24 0
BBX 24 24 0 -3
BITMAP
0e0300
0c0300
0c0680
0c0640
0d8c30
ffd81f
0c300e
0ccff6
0c0180
1e218c
1d3ffe
1db18c
3db18c
2c318c
2c318c
6c3ffc
4c334c
8c0340
0c0620
0c0630
0c0c18
0c181f
0c300e
0cc006
ENDCHAR
STARTCHAR ch-289
ENCODING 289
SWIDTH 1000 0
DWIDTH 24 0
BBX 24 24 0 -3
BITMAP
1c0007
180186
18ffc6
181806
1b1826
ff9226
183126
182126
18ffa6
3c71a6
3a0026
3b1c26
3b1826
781a26
58ff26
581826
581826
981826
181986
181e06
19f806
18e006
18803e
18000c
ENDCHAR
STARTCHAR ch-290
ENCODING 290
SWIDTH 1000 0
DWIDTH 24 0
BBX 24 24 0 -3
BITMAP
0e4006
0c7fff
0c6006
0c6006
0d6006
ffeff6
0c6186
0c6186
0c6186
1e6186
1d67e6
1d6186
3d6186
2c61e6
2c61b6
6c61b6
4c6186
8c6186
0c6ff6
0c6006
0c6006
0c6006
0c7ffe
0c6006
ENDCHAR
STARTCHAR ch-291
ENCODING 291
SWIDTH 1000 0
DWIDTH 24 0
BBX 24 24 0 -3
BITMAP
0e0360
0c0240
0c0240
0c0240
0da24c
fffffe
0c324c
0c324c
0c324c
1e324c
1d3ffc
1db24c
3db24c
2c324c
2c324c
6c324c
4cffff
8c0000
0c0000
0c0820
0c0e18
0c1c0c
0c300e
0cc006
ENDCHAR
STARTCHAR ch-293
ENCODING 293
SWIDTH 1000 0
DWIDTH 24 0
BBX 24 24 0 -3
BITMAP
0e2000
0c3800
0c3000
0c3086
0db0ff
ffffc6
0c58c6
0c58c6
0c98c6
1e18c6
1d18c6
1dffc6
3d98c6
2c18c6
2c18c6
6c18c6
4c14c6
8c34c6
0c36c6
0c26c6
0c66fe
0c40c6
0c80c6
0d0000
ENDCHAR
STARTCHAR ch-294
ENCODING 294
SWIDTH 1000 0
DWIDTH 24 0
BBX 24 24 0 -3
BITMAP
0e2390
0c131c
0c1b18
0c1b30
0d8324
fffffe
0c0640
0c0640
0e0c26
1d7fff
1d8830
1d9818
3c138c
2c230f
2c4306
6cbff8
4c0318
8c0618
0c0618
0c0c18
0c0c30
0c1830
0c31f0
0cc060
ENDCHAR
STARTCHAR ch-296
ENCODING 296
SWIDTH 1000 0
DWIDTH 24 0
BBX 24 24 0 -3
BITMAP
1c01c0
180180
184186
187fff
1b6000
ffe400
18671c
186618
186618
3c661a
3a6dff
3b6c18
3b6c18
787d18
586c98
586cd8
58ccd8
98cc18
188c18
198c18
190c18
1a0c18
180c78
180c30
ENDCHAR
STARTCHAR ch-298
ENCODING 298
SWIDTH 1000 0
DWIDTH 24 0
BBX 24 24 0 -3
BITMAP
0e0010
0c101c
0c0c18
0c0630
0d8620
ffc04c
0c3ffe
0c0660
0e0660
1d0660
1d8660
1d8664
3c0667
2c4666
2c2666
6c2664
4c3664
8c3668
0c3668
0c0660
0c0660
0c0666
0c7fff
0c0000
ENDCHAR
STARTCHAR ch-304
ENCODING 304
SWIDTH 1000 0
DWIDTH 24 0
BBX 24 24 0 -3
BITMAP
1c0346
19ffff
184666
184666
1b4666
ffc664
187e64
184664
184668
3c4668
3a4664
3b4664
3b7e64
784666
584666
584666
584666
984666
19fe66
18e67e
18866c
180660
180660
180660
ENDCHAR
STARTCHAR ch-308
ENCODING 308
SWIDTH 1000 0
DWIDTH 24 0
BBX 24 24 0 -3
BITMAP
1c0d18
189ffc
18f198
18c198
1ac198
ffc198
18c198
18f918
18c31f
3cc20f
3ac400
3ac00c
3afbfe
78c10c
58c10c
58c098
98ccd8
18f070
1be020
19c070
18c058
18c09f
18c10e
18c606
ENDCHAR
STARTCHAR ch-310
ENCODING 310
SWIDTH 1000 0
DWIDTH 24 0
BBX 24 24 0 -3
BITMAP
0e1c4e
0c1a6c
0c19cc
0c188c
0d996c
ffda2c
0c180c
0c1ffc
0c0000
1e0870
1d8e60
1ccc60
3cd87e
2c143e
2c2600
6c07f8
4c0c38
8c0a70
0c12e0
0c6180
0c03c0
0c0670
0c183f
0c600e
ENDCHAR
STARTCHAR ch-313
ENCODING 313
SWIDTH 1000 0
DWIDTH 24 0
BBX 24 24 0 -3
BITMAP
0e0e38
0c0c30
0c0c34
0c7ffe
0d8c30
ffcc30
0c0ff0
0c0c30
0e0c30
1d0ff0
1d8c30
1d8c30
3c0c36
2cffff
2c3330
6c3330
4c3230
8c323e
0c341e
0c3800
0c3000
0c3006
0c3fff
0c3000
ENDCHAR
STARTCHAR ch-317
ENCODING 317
SWIDTH 1000 0
DWIDTH 24 0
BBX 24 24 0 -3
BITMAP
0e0060
0c1ff0
0c0060
0c0060
0d9fe0
ffc060
0c0066
0c7fff
0e0180
1d0300
1d8708
1d8d8e
3c198c
2c63d8
2c06d0
6c0ce0
4c19d0
8c63d8
0c06cc
0c0ccf
0c18c6
0c61c0
0c0f80
0c0300
ENDCHAR
STARTCHAR ch-319
ENCODING 319
SWIDTH 1000 0
DWIDTH 24 0
BBX 24 24 0 -3
BITMAP
0e0700
0c0600
0c060c
0cfffe
0c0600
ff8600
0c0610
0c7ff8
0c0c80
1e0c80
1d1846
1dffff
3d9020
2c3030
2c2018
6c5fff
4c986e
8d1866
0c1fe0
0c1860
0c1860
0c1860
0c1fe0
0c1860
ENDCHAR
STARTCHAR ch-330
ENCODING 330
SWIDTH 1000 0
DWIDTH 24 0
BBX 24 24 0 -3
BITMAP
0e1030
0c1ff8
0c1830
0c1830
0d9830
ffdff0
0c1830
0c1830
0e1830
1d1ff0
1d8000
1d8006
3c7fff
2c1800
2c100c
6c3ffe
4c244c
8c4ccc
0d888c
0c110c
0c221c
0cc418
0c18f8
0c0030
ENDCHAR
STARTCHAR ch-339
ENCODING 339
SWIDTH 1000 0
DWIDTH 24 0
BBX 24 24 0 -3
BITMAP
1c8018
18fffc
18c018
18c098
18c3d8
ffde18
18c218
18c218
18c218
3cdfd8
3ad258
3ad258
3ad258
78d258
58dfd8
58c218
98c21a
18820a
18828a
18824a
19bfee
191c66
191067
1a0003
ENDCHAR
STARTCHAR ch-340
ENCODING 340
SWIDTH 1000 0
DWIDTH 24 0
BBX 24 24 0 -3
BITMAP
0e1c00
0c1800
0c1986
0cffff
0c1826
ff9826
0c1a26
0c7f66
0e1846
1d984e
1d98cc
1c1ebc
3cf918
2c6000
2c0380
6c0306
4cffff
8c0680
0c0640
0c0c60
0c0c38
0c181f
0c300e
0cc006
ENDCHAR
STARTCHAR ch-341
ENCODING 341
SWIDTH 1000 0
DWIDTH 24 0
BBX 24 24 0 -3
BITMAP
0e0400
0c0700
0c0606
0cffff
0c0c00
ffc800
0c1ffc
0c10c0
0c20c0
1c7fff
1e8000
1d0000
3d9ffc
2d980c
2c180c
6c1ffc
4c180c
8c180c
0c1ffc
0c180c
0c180c
0c180c
0c187c
0c1818
ENDCHAR
STARTCHAR ch-345
ENCODING 345
SWIDTH 1000 0
DWIDTH 24 0
BBX 24 24 0 -3
BITMAP
1c0638
18ff30
180630
180c30
1b4836
ffb1ff
181830
181a30
18ff30
1c1b78
3a1a78
3b3a78
3b38f4
3838b4
7878b6
5859b6
585933
989a32
189830
191830
181830
181830
18f830
183030
ENDCHAR
STARTCHAR ch-346
ENCODING 346
SWIDTH 1000 0
DWIDTH 24 0
BBX 24 24 0 -3
BITMAP
0380e0
0300c0
0330c6
ffffff
0701c0
0f83e0
0b62d0
1b24dc
3308cf
6330c6
8300c0
000000
000006
7fffff
00180c
041810
071800
061ff8
061800
0d1800
0cd800
187800
301fff
c003fe
ENDCHAR
STARTCHAR ch-348
ENCODING 348
SWIDTH 1000 0
DWIDTH 24 0
BBX 24 24 0 -3
BITMAP
0e1c46
0c187f
0c1866
0c1866
0d9b66
ffffe6
0c1866
0c187e
0e1866
1d1866
1d9866
1d9866
3c7e66
2c667e
2c6666
6c6666
4c6666
8c6666
0c6666
0c7ec6
0c66c6
0c6086
0c013e
0c020c
ENDCHAR
STARTCHAR ch-349
ENCODING 349
SWIDTH 1000 0
DWIDTH 24 0
BBX 24 24 0 -3
BITMAP
0e01c0
0c0180
0c0186
0c7fff
0d8180
ffc180
0c218c
0c3ffe
0c318c
1e399c
1d35ac
1db5ac
3db18c
2c3ffc
2c33ac
6c07a0
4c07b0
8c0d90
0c0d98
0c198c
0c118f
0c2186
0cc186
0c0180
ENDCHAR
STARTCHAR ch-350
ENCODING 350
SWIDTH 1000 0
DWIDTH 24 0
BBX 24 24 0 -3
BITMAP
0e2006
0c3fff
0c3246
0c3246
0db246
fff246
0c3ffe
0c3006
0c01c0
1e0180
1d8186
1cffff
3cc600
2c0600
2c060c
6c07fe
4c060c
8c0c0c
0c0c0c
0c080c
0c181c
0c1018
0c20f8
0cc030
ENDCHAR
STARTCHAR ch-352
ENCODING 352
SWIDTH 1000 0
DWIDTH 24 0
BBX 24 24 0 -3
BITMAP
0e0380
0c0300
0c0306
0cffff
0c0300
ff8300
0c430c
0c7ffe
0c600c
1e684c
1d646c
1d644c
3d608c
2c6fec
2c630c
6c630c
4c630c
8c6fec
0c630c
0c630c
0c630c
0c630c
0c633c
0c6018
ENDCHAR
STARTCHAR ch-353
ENCODING 353
SWIDTH 1000 0
DWIDTH 24 0
BBX 24 24 0 -3
BITMAP
0e0180
0c0180
0c0340
0c0320
0d8630
ffcc1c
0c180f
0c6026
0c0ff0
1e0000
1d220e
1dbf4c
3da24c
2c224c
2c3e4c
6c224c
4c224c
8c3e4c
0c224c
0c220c
0c220c
0c220c
0c2e3c
0c2618
ENDCHAR
STARTCHAR ch-354
ENCODING 354
SWIDTH 1000 0
DWIDTH 24 0
BBX 24 24 0 -3
BITMAP
0e2020
0c1838
0c0c30
0c0c20
0cc046
ffffff
0c0480
0c0480
0c448c
1e7ffe
1d648c
1d648c
3d648c
2c6cfc
2c687c
6c700c
4c600c
8c600c
0c7ffc
0c600c
0c600c
0c7ffc
0c600c
0c600c
ENDCHAR
STARTCHAR ch-362
ENCODING 362
SWIDTH 1000 0
DWIDTH 24 0
BBX 24 24 0 -3
BITMAP
0e1ccc
0c1888
0c1888
0c188a
0c7fff
ff9888
0c1888
0c1888
0c18f8
1e1800
1d9804
1cdffe
3cd800
2c01c0
2c0186
6c7fff
4c03a0
8c07a0
0c0590
0c0d98
0c198f
0c318e
0cc186
0c0180
ENDCHAR
STARTCHAR ch-363
ENCODING 363
SWIDTH 1000 0
DWIDTH 24 0
BBX 24 24 0 -3
BITMAP
0e0818
0c0ffc
0c0c18
0c0c18
0d8c18
ffcff8
0c0000
0c0006
0c7fff
1e0c18
1d8c18
1ccff8
3ccc18
2c0c18
2c0c18
6c0ff8
4c0c18
8c0c18
0c0c1f
0c7ff8
0c3e18
0c2018
0c0018
0c0018
ENDCHAR
STARTCHAR ch-365
ENCODING 365
SWIDTH 1000 0
DWIDTH 24 0
BBX 24 24 0 -3
BITMAP
007710
10661c
0c6638
066620
066646
ffffff
020100
0181c0
00c180
00c218
3ffffc
001800
001830
1ffff8
001800
001806
ffffff
007a00
00d900
01d8c0
071870
1c183f
e0180e
001800
ENDCHAR
STARTCHAR ch-366
ENCODING 366
SWIDTH 1000 0
DWIDTH 24 0
BBX 24 24 0 -3
BITMAP
0e0380
0c0308
0c030e
0c036c
0d9ff8
ffc318
0c0330
0c0360
0c0346
1e3fff
1d8300
1cc600
3ccc18
2c1ffc
2c2c18
6ccc18
4c0c18
8c0ff8
0c0c18
0c0c18
0c0c18
0c0ff8
0c0c18
0c0c18
ENDCHAR
STARTCHAR ch-367
ENCODING 367
SWIDTH 1000 0
DWIDTH 24 0
BBX 24 24 0 -3
BITMAP
0e001c
0c21fe
0c3f80
0c3000
0db0e0
fff0c0
0c30c6
0c3fff
0c30c0
1e30c0
1d34cc
1db7fe
3db60c
2c360c
2c37fc
6c660c
4c660c
8c660c
0c47fc
0cc60c
0c860c
0d060c
0c07fc
0c060c
ENDCHAR
STARTCHAR ch-371
ENCODING 371
SWIDTH 1000 0
DWIDTH 24 0
BBX 24 24 0 -3
BITMAP
0e0e38
0c0c30
0c0c32
0c7fff
0c0c30
ffcc30
0c0c30
0c0ff0
0c0c30
1e0c30
1d8c30
1ccff0
3cc180
2c0186
2cffff
6c0380
4c07c0
8c05a0
0c0db0
0c1998
0c319f
0c618e
0d8186
0c0180
ENDCHAR
STARTCHAR ch-372
ENCODING 372
SWIDTH 1000 0
DWIDTH 24 0
BBX 24 24 0 -3
BITMAP
0e01c0
0c0180
0c0186
0c7fff
0d8820
ffc438
0c0630
0c2620
0c2046
1c3fff
1e6004
1d61c8
3d8180
2da18c
2c3ffe
6c318c
4c318c
8c318c
0c318c
0c318c
0c31bc
0c3198
0c0180
0c0180
ENDCHAR
STARTCHAR ch-373
ENCODING 373
SWIDTH 1000 0
DWIDTH 24 0
BBX 24 24 0 -3
BITMAP
0e0000
0c000c
0dfffe
0c0c00
0c8c00
ffcc00
0c0980
0c1fc0
1c1980
1e0186
1d79ff
3dc986
2dc986
2c49a4
4c499c
4c4988
8c499c
0c7b16
0c0326
0c1f40
0c0600
0c0006
0dffff
0c0000
ENDCHAR
STARTCHAR ch-375
ENCODING 375
SWIDTH 1000 0
DWIDTH 24 0
BBX 24 24 0 -3
BITMAP
0e1c70
0c1860
0c1864
0c1867
0d9f6e
ffd870
0c1862
0c1862
0c1863
1e7f7f
1d383e
1da200
3d8380
2c130c
2c1ffe
6c180c
4c180c
8c180c
0c1ffc
0c180c
0c180c
0c180c
0c1ffc
0c180c
ENDCHAR
STARTCHAR ch-376
ENCODING 376
SWIDTH 1000 0
DWIDTH 24 0
BBX 24 24 0 -3
BITMAP
1c0c70
183e60
19f060
183060
183064
ff3167
183166
19ff66
183164
3c3368
3a3360
3b7860
3b7460
7876f0
58f6d0
58b0d0
59b0d0
9930d8
1a3188
18318c
18310c
18330f
183206
183406
ENDCHAR
STARTCHAR ch-377
ENCODING 377
SWIDTH 1000 0
DWIDTH 24 0
BBX 24 24 0 -3
BITMAP
0e0060
0c7ff0
0c0c60
0c0c60
0d8c66
ffcc7f
0c1806
0c1fc6
0e1846
1d1286
1db106
1da2c6
3c4c5e
2c800c
2c0000
6c3ffc
4c324c
8c324c
0c324c
0c324c
0c324c
0c324c
0cffff
0c0000
ENDCHAR
STARTCHAR ch-380
ENCODING 380
SWIDTH 1000 0
DWIDTH 24 0
BBX 24 24 0 -3
BITMAP
0e21c8
0c118e
0c198c
0c1988
0d8192
ffffff
0c07a0
0c0d90
0c099c
1e118f
1d6186
1d8000
3d8700
2c0606
2c7fff
6c0c30
4c1830
8c1860
0c3760
0c30c0
0c01b0
0c031c
0c0c0e
0c7006
ENDCHAR
STARTCHAR ch-381
ENCODING 381
SWIDTH 1000 0
DWIDTH 24 0
BBX 24 24 0 -3
BITMAP
002000
003804
413187
31ffc6
19818c
198190
01ff80
0181a0
058198
19818c
f1ff8e
618186
401c00
001800
001806
ffffff
00fa00
01d900
0398c0
071870
0c183f
30181e
c01806
001800
ENDCHAR
STARTCHAR ch-382
ENCODING 382
SWIDTH 1000 0
DWIDTH 24 0
BBX 24 24 0 -3
BITMAP
0e0200
0c0380
0c1318
0c1ffc
0d9818
ffd818
0c1ff8
0c1818
0c1818
1e1818
1d9ff8
1cc180
3cc188
2c0d8e
2c7f9c
6c0da0
4c0dc0
8c19a0
0c19b0
0c3198
0c219f
0c418e
0d8f86
0c0300
ENDCHAR
STARTCHAR ch-385
ENCODING 385
SWIDTH 1000 0
DWIDTH 24 0
BBX 24 24 0 -3
BITMAP
0e01c0
0c1180
0c1186
0c3fff
0d3006
ffe004
0c6018
0c1ffc
0c0300
1e0220
1d0418
1dbfec
3d9e0c
2c1000
2c01c0
6c0180
4c018c
8c3ffe
0c0180
0c0180
0c0180
0c0186
0c7fff
0c0000
ENDCHAR
STARTCHAR ch-386
ENCODING 386
SWIDTH 1000 0
DWIDTH 24 0
BBX 24 24 0 -3
BITMAP
1c8c00
18fe06
18cdff
18cc98
1acc98
ffcc98
18fc98
18cc98
18cc98
3ccc98
3acc9a
3bffff
3bcc30
78c03c
58d078
58c858
58cc58
98d6d8
18e698
1bc19a
19811a
19021b
18041f
18180e
ENDCHAR
STARTCHAR ch-394
ENCODING 394
SWIDTH 1000 0
DWIDTH 24 0
BBX 24 24 0 -3
BITMAP
1c3838
183030
183030
183030
1b3632
ffffff
180d32
180d32
3c1932
3a1932
3b31fe
3b3132
387932
787532
58b732
593732
5a31fe
983132
183030
183030
183030
183030
183030
183030
ENDCHAR
STARTCHAR ch-398
ENCODING 398
SWIDTH 1000 0
DWIDTH 24 0
BBX 24 24 0 -3
BITMAP
0e0006
0c7fff
0c0180
0c0100
0c9ffc
ffd80c
0c180c
0c1ffc
0c180c
1e180c
1d9ffc
1cd80c
3cd80c
2c1ffc
2c0800
6c0c18
4c0ffc
8c1818
0c3430
0cc260
0c01c0
0c0770
0c1c1f
0ce006
ENDCHAR
STARTCHAR ch-401
ENCODING 401
SWIDTH 1000 0
DWIDTH 24 0
BBX 24 24 0 -3
BITMAP
0e01d0
0c0198
0c018a
0cffff
0c0180
ffa18c
0c3ffe
0c318c
0c318c
1e3ffc
1d318c
1db18c
3dbffc
2c300c
2c0000
6c0032
4cffff
8c0030
0c1030
0c0c30
0c0630
0c0630
0c00f0
0c0060
ENDCHAR
STARTCHAR ch-404
ENCODING 404
SWIDTH 1000 0
DWIDTH 24 0
BBX 24 24 0 -3
BITMAP
1c3886
1830ff
1830c6
1830c6
1afcc4
ff84c4
1884cc
1884c8
18fcc8
3c84d0
3a84c8
3a84cc
38fcc4
7880c6
5880c6
5890c6
9888c6
1888c6
188cc6
18bcde
1bcccc
198cc0
1900c0
1800c0
ENDCHAR
STARTCHAR ch-405
ENCODING 405
SWIDTH 1000 0
DWIDTH 24 0
BBX 24 24 0 -3
BITMAP
0e01c0
0c2180
0c2186
0c7fff
0d6006
ffc808
0cce20
0c0c18
0c198c
1e1186
1d2346
1d8340
3d8620
2c0c30
2c181c
6c300f
4cdffe
8c1818
0c1818
0c1818
0c1818
0c1818
0c1ff8
0c1818
ENDCHAR
STARTCHAR ch-411
ENCODING 411
SWIDTH 1000 0
DWIDTH 24 0
BBX 24 24 0 -3
BITMAP
1c0380
180300
18030c
187ffe
1b0600
ff8400
183ffc
180c80
1c0846
3affff
3b3030
3b209c
3843cf
789f06
590300
580318
98fffc
180700
180fc0
181b30
18331c
18630e
198306
180300
ENDCHAR
STARTCHAR ch-412
ENCODING 412
SWIDTH 1000 0
DWIDTH 24 0
BBX 24 24 0 -3
BITMAP
0e01c0
0c0180
0c0186
0c3fff
0d8820
ffc430
0c0620
0c2246
0c3fff
1e6004
1d6388
1d0300
3d0306
2c7fff
2c0300
6c0318
4c07fc
8c0618
0c0418
0c0c18
0c0838
0c1030
0c21f0
0cc060
ENDCHAR
STARTCHAR ch-416
ENCODING 416
SWIDTH 1000 0
DWIDTH 24 0
BBX 24 24 0 -3
BITMAP
0e1000
0c3006
0c3fff
0c6006
0d6004
ff9018
0c1ffc
0c1818
0c1818
1e1ff8
1d1818
1d9818
3d9ff8
2c1818
2c01c0
6c0186
4c7fff
8c0000
0c0800
0c0e20
0c1c18
0c180c
0c300e
0c4006
ENDCHAR
STARTCHAR ch-423
ENCODING 423
SWIDTH 1000 0
DWIDTH 24 0
BBX 24 24 0 -3
BITMAP
1c400c
187ffe
186000
186000
1b6338
ffe330
186330
186f3e
186330
3c6330
3a6f3e
3b6330
3b6330
786330
586f3e
586330
586230
986630
186430
186830
186000
186006
187fff
186000
ENDCHAR
STARTCHAR ch-430
ENCODING 430
SWIDTH 1000 0
DWIDTH 24 0
BBX 24 24 0 -3
BITMAP
0180c0
012088
09349c
0964b0
1b0d80
128940
066330
042218
280408
200006
7fffff
600006
c01c04
c01800
001818
3ffffc
007a00
00d900
01d980
0398e0
07187e
1c183c
60180c
001800
ENDCHAR
STARTCHAR ch-433
ENCODING 433
SWIDTH 1000 0
DWIDTH 24 0
BBX 24 24 0 -3
BITMAP
0e01c0
0c0180
0c018c
0c7ffe
0d8000
ffc000
0c1ff8
0c1818
0c181a
1cffff
1e1818
1d1818
3d9ff8
2d8680
2c0e84
6c0c47
4c1c46
8c3c6c
0c6c28
0d8c30
0c0c18
0c7f9f
0c3c0e
0c2006
ENDCHAR
STARTCHAR ch-434
ENCODING 434
SWIDTH 1000 0
DWIDTH 24 0
BBX 24 24 0 -3
BITMAP
0e0000
0c1018
0c1ffc
0c1818
0d9818
ffd818
0c1ff8
0c1818
0c1818
1e1818
1d9ff8
1cc000
3cc000
2c200c
2c3ffe
6c324c
4c324c
8c324c
0c324c
0c324c
0c324c
0c324c
0cffff
0c0000
ENDCHAR
STARTCHAR ch-436
ENCODING 436
SWIDTH 1000 0
DWIDTH 24 0
BBX 24 24 0 -3
BITMAP
0e0c00
0c5e06
0c71ff
0c6066
0c6066
ffe466
0c6466
0c6646
0c7ec6
1de69e
1c810c
1e0200
3d0000
2da00c
2dbffe
6c318c
4c318c
8c318c
0c3ffc
0c318c
0c318c
0c318c
0c3ffc
0c300c
ENDCHAR
STARTCHAR ch-443
ENCODING 443
SWIDTH 1000 0
DWIDTH 24 0
BBX 24 24 0 -3
BITMAP
0e200c
0c3ffe
0c300c
0c300c
0dbffc
fff00c
0c300c
0c3ffc
0c300c
1e0000
1d0606
1dffff
3d8606
2c4646
2c6666
6c2626
4c0e0e
8c1616
0c6666
0dc7c6
0c8686
0c0606
0c3e3e
0c0c0c
ENDCHAR
STARTCHAR ch-446
ENCODING 446
SWIDTH 1000 0
DWIDTH 24 0
BBX 24 24 0 -3
BITMAP
0e0818
0c0ffc
0c0c18
0c0c18
0d8cf8
ffcc98
0c0c98
0c2c9a
0c3fff
1c6006
1e6004
1d0818
3d8ffc
2d8c18
2c0c18
6c0ff8
4c0c18
8c0c18
0c0ff8
0c0c18
0c0c18
0c0c18
0c0cf8
0c0c30
ENDCHAR
STARTCHAR ch-447
ENCODING 447
SWIDTH 1000 0
DWIDTH 24 0
BBX 24 24 0 -3
BITMAP
0e01c0
0c398e
0c318c
0c318c
0db18c
fffffc
0c0000
0c000c
0c7ffe
1e0000
1d8000
1cdff8
3cd818
2c1818
2c1818
6c1ff8
4c0000
8c1020
0c0838
0c0c30
0c0c60
0c0046
0cffff
0c0000
ENDCHAR
STARTCHAR ch-449
ENCODING 449
SWIDTH 1000 0
DWIDTH 24 0
BBX 24 24 0 -3
BITMAP
0e01c0
0c0180
0c0186
0c7fff
0d8000
ffc000
0c0ff8
0c0c18
0c0c18
1e0ff8
1d0000
1da006
3dbfff
2c3006
2c3006
6c33e6
4c3226
8c3226
0c3226
0c33e6
0c3006
0c3006
0c303e
0c300c
ENDCHAR
STARTCHAR ch-451
ENCODING 451
SWIDTH 1000 0
DWIDTH 24 0
BBX 24 24 0 -3
BITMAP
040000
070430
2667f8
3ff630
306630
36643f
32641f
306800
fff7f8
706218
326130
3260e0
6061b8
41e31f
80dc06
001800
7ffffe
007a00
00d980
0198e0
07187f
1c181e
e01806
001800
ENDCHAR
STARTCHAR ch-455
ENCODING 455
SWIDTH 1000 0
DWIDTH 24 0
BBX 24 24 0 -3
BITMAP
0e0e30
0c0cf8
0c0f80
0c0c04
0d8c06
ffcffe
0c07fc
0c0000
0c33f8
1e3318
1d3318
1db3f8
3db318
2c3318
2c33f8
6c3318
4c3318
8c33f8
0c3006
0c3fff
0c0800
0c0e38
0c1c0e
0c7006
ENDCHAR
STARTCHAR ch-458
ENCODING 458
SWIDTH 1000 0
DWIDTH 24 0
BBX 24 24 0 -3
BITMAP
204106
1871ff
0c6186
0c8986
fffdfe
030186
030186
3331fe
333186
333186
3ff106
060306
04023e
08040c
301800
00180c
7ffffe
007a00
00f900
01d8c0
071870
1c183f
e0180e
001800
ENDCHAR
STARTCHAR ch-459
ENCODING 459
SWIDTH 1000 0
DWIDTH 24 0
BBX 24 24 0 -3
BITMAP
0e0738
0c0630
0c0630
0c7fff
0d8630
ffc630
0c3ffe
0c0630
0c0630
1e7fff
1d0080
1d908c
3d9ffe
2c188c
2c188c
6c1ffc
4c188c
8c188c
0c7fff
0c180c
0c180c
0c180c
0c187c
0c1818
ENDCHAR
STARTCHAR ch-460
ENCODING 460
SWIDTH 1000 0
DWIDTH 24 0
BBX 24 24 0 -3
BITMAP
0e0080
0c80e0
0c62cc
0c33fe
0d330c
ffb30c
0c030c
0c030c
0c03fc
1e0300
1d3300
1dfb06
3db3ff
2c3306
2c3306
6c3306
4c3306
8c33fe
0c3306
0c3000
0c6800
0dc7ff
0cc1fe
0c8000
ENDCHAR
STARTCHAR ch-461
ENCODING 461
SWIDTH 1000 0
DWIDTH 24 0
BBX 24 24 0 -3
BITMAP
0e0180
0c0180
0c0340
0c0320
0d8630
ffc41c
0c0bef
0c1006
0c6818
1e0ffc
1d8c18
1ccc18
3ccff8
2c0c18
2c0c18
6c0ff8
4c1800
8c180c
0c17fe
0c360c
0c260c
0c460c
0c87fc
0c060c
ENDCHAR
STARTCHAR ch-462
ENCODING 462
SWIDTH 1000 0
DWIDTH 24 0
BBX 24 24 0 -3
BITMAP
0e1010
0c0c1c
0c0618
0c0620
0dbffe
ffc180
0c0180
0c1ffc
0c0180
1e0180
1d8186
1cffff
3cc600
2c0600
2c0c00
6c080c
4c1ffe
8c10c0
0c20c0
0cc0c0
0c00c0
0c00c6
0c3fff
0c0000
ENDCHAR
STARTCHAR ch-464
ENCODING 464
SWIDTH 1000 0
DWIDTH 24 0
BBX 24 24 0 -3
BITMAP
0e0200
0c0380
0c230c
0c3ffe
0db10c
fff10c
0c310c
0c3ffc
0c310c
1e310c
1d310c
1dbffc
3d80c8
2c08cc
2c0ec8
6c0cd8
4c0cd2
8c18ff
0c18d9
0c10c0
0c30c2
0c20c3
0c40ff
0d807e
ENDCHAR
STARTCHAR ch-467
ENCODING 467
SWIDTH 1000 0
DWIDTH 24 0
BBX 24 24 0 -3
BITMAP
0e0000
0c0018
0c1ffc
0c0180
0d8180
ffc186
0c3fff
0c0000
0c0000
1e1ffc
1d980c
1cd80c
3cdffc
2c180c
2c180c
6c1ffc
4c180c
8c180c
0c1ffc
0c0000
0c0400
0c0e38
0c180e
0c6006
ENDCHAR
STARTCHAR ch-472
ENCODING 472
SWIDTH 1000 0
DWIDTH 24 0
BBX 24 24 0 -3
BITMAP
0e2020
0c1838
0c0c30
0c0c44
0c7ffe
ff8300
0c0308
0c7ffc
0e0300
1d0302
1dffff
1d8300
3c0308
2c430e
2c331c
6c1ba0
4c1b40
8c0760
0c0b30
0c3338
0de31f
0cc30e
0c8f06
0c0600
ENDCHAR
STARTCHAR ch-473
ENCODING 473
SWIDTH 1000 0
DWIDTH 24 0
BBX 24 24 0 -3
BITMAP
0e01c0
0c0180
0c018c
0c3ffe
0d8180
ffc180
0c1ff8
0c1818
0c1818
1e1ff8
1d9818
1cd818
3cdff8
2c1818
2c1818
6c1ff8
4c0000
8c0006
0cffff
0c0800
0c0e30
0c1c0c
0c3006
0cc006
ENDCHAR
STARTCHAR ch-477
ENCODING 477
SWIDTH 1000 0
DWIDTH 24 0
BBX 24 24 0 -3
BITMAP
0e0400
0c0700
0c2630
0c3ff8
0db030
fff030
0c3ff0
0c3030
0c3030
1e3ff0
1d3000
1db00c
3dbffe
2c3000
2c3006
6c3fff
4c0006
8c0c06
0cccc6
0cccc6
0cccce
0cffcc
0cc0fc
0c0018
ENDCHAR
STARTCHAR ch-478
ENCODING 478
SWIDTH 1000 0
DWIDTH 24 0
BBX 24 24 0 -3
BITMAP
0e01c0
0c0180
0c018c
0c3ffe
0d8820
ffc430
0c0420
0c0046
0c7fff
1e0000
1d200c
1dbffe
3db18c
2c318c
2c3ffc
6c318c
4c318c
8c318c
0c3ffc
0c3182
0c0182
0c0183
0c01ff
0c00fe
ENDCHAR
STARTCHAR ch-487
ENCODING 487
SWIDTH 1000 0
DWIDTH 24 0
BBX 24 24 0 -3
BITMAP
03800c
031a3e
ffffe0
030300
3ff300
231306
2313ff
3ff318
231318
231318
3ff318
030218
fffe18
030418
031818
001806
ffffff
007a00
00d980
0198e0
07187f
1c181e
e01806
001800
ENDCHAR
STARTCHAR ch-488
ENCODING 488
SWIDTH 1000 0
DWIDTH 24 0
BBX 24 24 0 -3
BITMAP
1c1c00
181846
18197f
19ffe6
1a0066
ff0066
187e64
184264
184264
3c4268
3a7e68
3b0064
3b0664
78ff64
580666
580466
581866
981f66
19fc66
18f87e
18186c
181860
18f860
183060
ENDCHAR
STARTCHAR ch-491
ENCODING 491
SWIDTH 1000 0
DWIDTH 24 0
BBX 24 24 0 -3
BITMAP
0e01c0
0c0186
0cffff
0c0180
0da18c
fffffe
0c318c
0c318c
0c3ffc
1e318c
1d318c
1dbffc
3d8190
2c018c
2c7ff6
6c1c06
4c0030
8cffff
0c1030
0c0830
0c0c30
0c0c30
0c01f0
0c0060
ENDCHAR
STARTCHAR ch-493
ENCODING 493
SWIDTH 1000 0
DWIDTH 24 0
BBX 24 24 0 -3
BITMAP
1c0070
180068
180066
180062
1b4060
ffffff
186060
186460
186464
3c6767
3a6426
3b6426
3b642c
787fac
586428
584438
585510
98d592
18d4ba
18a4aa
18846e
199c46
190c87
1a0003
ENDCHAR
STARTCHAR ch-498
ENCODING 498
SWIDTH 1000 0
DWIDTH 24 0
BBX 24 24 0 -3
BITMAP
1c400e
18700c
18648c
187e4c
1a466c
ffc46c
18880c
197f0c
18490c
3c498c
3a494c
3b7f6c
3b496c
78490c
58490c
587f0f
58413c
9841ec
18410c
18410c
18c10c
18810c
188f0c
19030c
ENDCHAR
STARTCHAR ch-505
ENCODING 505
SWIDTH 1000 0
DWIDTH 24 0
BBX 24 24 0 -3
BITMAP
0e0200
0c0380
0c230c
0c3ffe
0db00c
fff00c
0c3ffc
0c300c
0e300c
1d3ffc
1d8000
1d81c0
3c399c
2c0180
2c0180
6c399c
4c0180
8c0186
0cffff
0c0180
0c0180
0c0180
0c0180
0c0180
ENDCHAR
STARTCHAR ch-507
ENCODING 507
SWIDTH 1000 0
DWIDTH 24 0
BBX 24 24 0 -3
BITMAP
1c710c
1861fe
18618c
18618c
1a698c
fffdfc
18618c
18618c
18618c
3c65fc
3bff8c
3b618c
3b618c
78618c
5861fc
586030
98d130
18c9f0
188db0
198db2
190332
1a0233
1c043f
18181e
ENDCHAR
STARTCHAR ch-509
ENCODING 509
SWIDTH 1000 0
DWIDTH 24 0
BBX 24 24 0 -3
BITMAP
0e0330
0c0220
0c0222
0c7fff
0d0220
ffa222
0c3fff
0c2222
0c2222
1e3ffe
1d2222
1da222
3dbffe
2c0000
2c100c
6c1ffe
4c180c
8c180c
0c1ffc
0c180c
0c180c
0c180c
0c1ffc
0c180c
ENDCHAR
STARTCHAR ch-511
ENCODING 511
SWIDTH 1000 0
DWIDTH 24 0
BBX 24 24 0 -3
BITMAP
0e0770
0c0660
0c0666
0c7fff
0d8660
ffc660
0c0000
0c200c
0c3ffe
1e318c
1d318c
1db18c
3dbffc
2c318c
2c0180
6c0188
4c3ffc
8c0180
0c0188
0c3ffc
0c0180
0c0182
0cffff
0c0000
ENDCHAR
ENDFONT
